<svg xmlns="http://www.w3.org/2000/svg" version="1.1" xmlns:xlink="http://www.w3.org/1999/xlink" xmlns:svgjs="http://svgjs.dev/svgjs" width="1000" height="1008" viewBox="0 0 1000 1008"><g transform="matrix(1,0,0,1,0.6455283618294629,0.40885076629808736)"><svg viewBox="0 0 245 247" data-background-color="#ffffff" preserveAspectRatio="xMidYMid meet" height="1008" width="1000" xmlns="http://www.w3.org/2000/svg" xmlns:xlink="http://www.w3.org/1999/xlink"><g id="tight-bounds" transform="matrix(1,0,0,1,-0.1578812076312488,-0.09997365579206985)"><svg viewBox="0 0 245.3160356562795 247.2" height="247.2" width="245.3160356562795"><g><svg viewBox="0 0 245.3160356562795 247.2" height="247.2" width="245.3160356562795"><g><svg viewBox="0 0 245.3160356562795 247.2" height="247.2" width="245.3160356562795"><g><svg viewBox="0 0 245.3160356562795 247.2" height="247.2" width="245.3160356562795"><g id="textblocktransform"><svg viewBox="0 0 245.3160356562795 247.2" height="247.2" width="245.3160356562795" id="textblock"><g><svg viewBox="0 0 245.3160356562795 247.2" height="247.2" width="245.3160356562795"><path d="M244.742 53.02C243.588 27.36 240.302 20.227 240.302 20.227 230.21-6.202 217.616-0.506 206.303 3.292 186.328 3.446 166.434 9.091 146.505 12.119 104.675 12.581 62.488 4.986 20.866 23.717 16.957 29.464-4.056 24.846 0.695 56.304 1.941 69.39 6.485 83.913 6.347 95.922 6.969 98.026 7.834 93.202 8.203 96.23 9.495 104.39 11.605 100.541 13.335 105.365 10.925 118.246 12.655 128.971 14.304 140.21 11.398 143.135 7.673 141.749 6.001 151.449 5.828 158.479 4.893 157.145 3.867 156.837 3.117 156.632 1.607 157.402 1.86 159.608 2.725 167.152-0.988 171.514 1.341 178.904-0.262 186.91 2.448 193.838 2.079 202.511 2.033 204.255 2.287 205.744 2.691 206.154 4.478 208.361 1.872 212.672 2.149 217.342 20.486 249.262 40.38 227.195 59.167 241.872 64.045 231.608 60.378 245.516 62.327 243.36 63.849 240.846 64.956 251.263 66.675 245.362 66.94 243.668 66.536 239.665 67.482 240.435 67.978 240.846 68.416 240.743 68.485 238.382 68.589 234.841 67.678 237.048 67.436 235.201 70.054 225.861 69.408 248.081 71.865 247.158 71.749 244.438 71.034 240.538 72.499 241.051 73.952 237.151 73.998 233.918 75.29 242.693 75.336 244.592 75.567 245.926 75.936 246.85 79.972 237.305 83.986 250.237 88.218 245.926 90.813 241.205 93.304 248.492 95.934 246.696 96.856 245.259 97.79 242.693 98.678 247.004 109.554 247.928 121.144 244.079 131.455 247.158 159.007 241.41 188.45 249.518 217.501 241.923 224.352 238.998 231.467 234.841 238.145 231.506 238.145 231.506 243.554 222.371 243.554 181.316S244.707 145.393 244.88 112.703C245.053 80.013 245.86 78.679 244.707 53.02Z" opacity="1" fill="#ff4727" data-fill-palette-color="tertiary"></path><g transform="matrix(1,0,0,1,55.76832,26.230666666666668)"><svg width="133.7793956562795" viewBox="1.6 -34.9 24.25 35.3" height="194.73866666666666" data-palette-color="#ffffff"><path d="M17-29.05L17-29.05Q15.3-29.5 13.45-29.5 11.6-29.5 10.48-28.58 9.35-27.65 9.35-25.98 9.35-24.3 10.2-23.35 11.05-22.4 13.55-21.7L13.55-21.7 18-20.4Q21.6-19.35 23.73-17.13 25.85-14.9 25.85-10.6L25.85-10.6Q25.85-5.5 22.18-2.55 18.5 0.4 13.05 0.4L13.05 0.4Q10.05 0.4 6.88-0.38 3.7-1.15 1.6-2.55L1.6-2.55Q1.6-2.85 1.6-3.7 1.6-4.55 1.95-6.6 2.3-8.65 2.95-9.95L2.95-9.95 7.7-9.95Q8.5-8.4 8.65-5.8L8.65-5.8Q10.4-5.05 12.73-5.05 15.05-5.05 16.55-6.15 18.05-7.25 18.05-9.3L18.05-9.3Q18.05-10.25 17.9-10.88 17.75-11.5 16.98-12.23 16.2-12.95 14.75-13.4L14.75-13.4 9.6-14.9Q1.75-17.15 1.75-24.9L1.75-24.9Q1.75-29.45 5.05-32.18 8.35-34.9 13.68-34.9 19-34.9 24.1-32.5L24.1-32.5Q24.1-32.2 24.1-31.35 24.1-30.5 23.75-28.45 23.4-26.4 22.75-25.1L22.75-25.1 18-25.1Q17.15-26.3 17-29.05Z" opacity="1" transform="matrix(1,0,0,1,0,0)" fill="#ffffff" class="wordmark-text-0" data-fill-palette-color="quaternary" id="text-0"></path></svg></g></svg></g></svg></g></svg></g><g></g></svg></g></svg></g><defs></defs></svg><rect width="245.3160356562795" height="247.2" fill="none" stroke="none" visibility="hidden"></rect></g></svg></g></svg>